<?xml version="1.0" encoding="utf-8"?>
<!-- Generator: Adobe Illustrator 17.0.0, SVG Export Plug-In . SVG Version: 6.00 Build 0)  -->
<!DOCTYPE svg PUBLIC "-//W3C//DTD SVG 1.1//EN" "http://www.w3.org/Graphics/SVG/1.1/DTD/svg11.dtd">
<svg version="1.1" id="Layer_1" xmlns="http://www.w3.org/2000/svg" xmlns:xlink="http://www.w3.org/1999/xlink" x="0px" y="0px"
	 width="23.571px" height="14.686px" viewBox="0 0 23.571 14.686" style="enable-background:new 0 0 23.571 14.686;"
	 xml:space="preserve">
<style type="text/css">
	.st0{fill-rule:evenodd;clip-rule:evenodd;fill:#959595;}
</style>
<path class="st0" d="M1.571,0H22c0.868,0,1.571,0.713,1.571,1.594c0,0.88-0.703,1.593-1.571,1.593H1.571
	C0.704,3.187,0,2.473,0,1.594C0,0.713,0.704,0,1.571,0z"/>
<path class="st0" d="M1.571,5.75H22c0.868,0,1.571,0.713,1.571,1.594c0,0.88-0.703,1.593-1.571,1.593H1.571
	C0.704,8.936,0,8.223,0,7.344C0,6.463,0.704,5.75,1.571,5.75z"/>
<path class="st0" d="M1.571,11.5H22c0.868,0,1.571,0.713,1.571,1.594c0,0.88-0.703,1.593-1.571,1.593H1.571
	C0.704,14.686,0,13.973,0,13.094C0,12.213,0.704,11.5,1.571,11.5z"/>
</svg>
