<?xml version="1.0" encoding="utf-8"?>
<!-- Generator: Adobe Illustrator 17.0.0, SVG Export Plug-In . SVG Version: 6.00 Build 0)  -->
<!DOCTYPE svg PUBLIC "-//W3C//DTD SVG 1.1//EN" "http://www.w3.org/Graphics/SVG/1.1/DTD/svg11.dtd">
<svg version="1.1" id="Layer_1" xmlns="http://www.w3.org/2000/svg" xmlns:xlink="http://www.w3.org/1999/xlink" x="0px" y="0px"
	 width="19px" height="17.996px" viewBox="0 0 19 17.996" style="enable-background:new 0 0 19 17.996;" xml:space="preserve">
<style type="text/css">
	.st0{fill-rule:evenodd;clip-rule:evenodd;fill:#959595;}
</style>
<path class="st0" d="M16.249,9.517l-2.751-2.769h1.612c-0.015-0.04-0.03-0.08-0.046-0.12c-0.956-2.438-3.318-4.163-6.08-4.163
	c-3.609,0-6.534,2.944-6.534,6.576c0,3.632,2.925,6.576,6.534,6.576c2.654,0,4.939-1.593,5.962-3.88
	c0.01-0.022,0.016-0.045,0.026-0.067l1.752,1.752c-0.012,0.021-0.02,0.044-0.032,0.065c-0.003,0.005-0.005,0.009-0.008,0.014
	c-1.546,2.688-4.435,4.496-7.743,4.496C4.003,17.996,0,13.968,0,8.998S4.003,0,8.941,0c4.128,0,7.602,2.815,8.631,6.641
	c0.009,0.035,0.012,0.072,0.021,0.108H19L16.249,9.517z"/>
</svg>
