<?xml version="1.0" encoding="utf-8"?>
<!-- Generator: Adobe Illustrator 17.0.0, SVG Export Plug-In . SVG Version: 6.00 Build 0)  -->
<!DOCTYPE svg PUBLIC "-//W3C//DTD SVG 1.1//EN" "http://www.w3.org/Graphics/SVG/1.1/DTD/svg11.dtd">
<svg version="1.1" id="Layer_1" xmlns="http://www.w3.org/2000/svg" xmlns:xlink="http://www.w3.org/1999/xlink" x="0px" y="0px"
	 width="16.78px" height="16.763px" viewBox="0 0 16.78 16.763" style="enable-background:new 0 0 16.78 16.763;"
	 xml:space="preserve">
<style type="text/css">
	.st0{fill-rule:evenodd;clip-rule:evenodd;fill:#959595;}
</style>
<path class="st0" d="M16.319,16.302c-0.615,0.615-1.613,0.615-2.229,0l-2.781-2.779c-1.144,0.732-2.495,1.17-3.955,1.17
	C3.293,14.693,0,11.404,0,7.347C0,3.289,3.293,0,7.354,0c4.062,0,7.354,3.289,7.354,7.347c0,1.458-0.438,2.808-1.171,3.951
	l2.781,2.778C16.934,14.691,16.934,15.688,16.319,16.302z M7.354,2.099c-2.901,0-5.253,2.35-5.253,5.248s2.352,5.247,5.253,5.247
	c2.901,0,5.253-2.349,5.253-5.247S10.255,2.099,7.354,2.099z"/>
</svg>
